<svg id="Icons_-_Filled_-_Popular_Logos" data-name="Icons - Filled - Popular Logos" xmlns="http://www.w3.org/2000/svg" width="36" height="36" viewBox="0 0 36 36">
  <rect id="Rectangle_4" data-name="Rectangle 4" width="36" height="36" fill="#14142b" opacity="0"/>
  <path id="Google_Playstore" data-name="Google Playstore" d="M26.016,12.7l-6.067,5.679,5.564,5.208,6.508-3.56c1.553-.852,1.922-2.113,1.106-3.154-.018-.026-.037-.052-.057-.078a2.535,2.535,0,0,0-1.047-.809h0ZM24.1,24.349l-5.266-4.929L1.3,35.831a2.518,2.518,0,0,0,2.366-.3ZM.232,34.737,17.714,18.375.05,1.843A2.707,2.707,0,0,0,0,2.526V33.279c-.005.087-.006.174,0,.26A2.741,2.741,0,0,0,.232,34.737ZM.793.446,18.831,17.329l5.774-5.4L3.664.47A2.414,2.414,0,0,0,2.152,0L2.111,0A1.91,1.91,0,0,0,.793.446Z" transform="translate(1.227 0)" fill="#14142b" fill-rule="evenodd"/>
</svg>
