<svg id="Icons_-_Filled_-_Payment_Methods" data-name="Icons - Filled - Payment Methods" xmlns="http://www.w3.org/2000/svg" xmlns:xlink="http://www.w3.org/1999/xlink" width="36" height="36" viewBox="0 0 36 36">
  <defs>
    <clipPath id="clip-path">
      <rect id="Rectangle_96" data-name="Rectangle 96" width="36" height="36" fill="#fff"/>
    </clipPath>
  </defs>
  <rect id="Rectangle_4" data-name="Rectangle 4" width="36" height="36" fill="#14142b" opacity="0"/>
  <g id="Apple" clip-path="url(#clip-path)">
    <path id="Path_669" data-name="Path 669" d="M31.688,28.055a19.573,19.573,0,0,1-1.936,3.48,17.679,17.679,0,0,1-2.493,3.013,4.837,4.837,0,0,1-3.2,1.411,8.032,8.032,0,0,1-2.96-.707,8.493,8.493,0,0,0-3.187-.7,8.78,8.78,0,0,0-3.277.7A8.818,8.818,0,0,1,11.8,36a4.554,4.554,0,0,1-3.277-1.449,18.562,18.562,0,0,1-2.608-3.12,21.579,21.579,0,0,1-2.758-5.478A20.058,20.058,0,0,1,2,19.423a11.922,11.922,0,0,1,1.566-6.237A9.183,9.183,0,0,1,6.844,9.869a8.82,8.82,0,0,1,4.433-1.251,10.437,10.437,0,0,1,3.429.8,11.023,11.023,0,0,0,2.719.8,16.276,16.276,0,0,0,3.015-.942,9.967,9.967,0,0,1,4.1-.728,8.7,8.7,0,0,1,6.818,3.589,7.584,7.584,0,0,0-4.022,6.889,7.6,7.6,0,0,0,2.5,5.726,8.2,8.2,0,0,0,2.493,1.635Q32.023,27.257,31.688,28.055ZM24.742.721a7.68,7.68,0,0,1-1.969,5.037c-1.582,1.85-3.5,2.919-5.571,2.75a5.614,5.614,0,0,1-.042-.682,7.89,7.89,0,0,1,2.089-5.091A8.041,8.041,0,0,1,21.793.825,7.587,7.587,0,0,1,24.7,0a6.53,6.53,0,0,1,.038.72Z" transform="translate(1 0)" fill="#14142b"/>
  </g>
</svg>
